<svg width="25" height="24" viewBox="0 0 25 24" fill="none" xmlns="http://www.w3.org/2000/svg">
<path d="M22.7122 4.2667L20.2456 1.80003C20.0336 1.59788 19.7519 1.48511 19.4589 1.48511C19.166 1.48511 18.8843 1.59788 18.6722 1.80003L16.4789 4.00003H4.71224C4.35862 4.00003 4.01948 4.1405 3.76943 4.39055C3.51938 4.6406 3.37891 4.97974 3.37891 5.33336V20C3.37891 20.3537 3.51938 20.6928 3.76943 20.9428C4.01948 21.1929 4.35862 21.3334 4.71224 21.3334H19.3789C19.7325 21.3334 20.0717 21.1929 20.3217 20.9428C20.5718 20.6928 20.7122 20.3537 20.7122 20V7.84003L22.7122 5.84003C22.9207 5.63129 23.0377 5.34835 23.0377 5.05336C23.0377 4.75837 22.9207 4.47544 22.7122 4.2667ZM13.2656 13.42L10.4722 14.04L11.1389 11.2734L17.5056 4.89336L19.6589 7.04669L13.2656 13.42ZM20.3789 6.2867L18.2256 4.13336L19.4589 2.90003L21.6122 5.05336L20.3789 6.2867Z" fill="#FFFFFF"/>
</svg>