<svg width="25" height="24" viewBox="0 0 25 24" fill="none" xmlns="http://www.w3.org/2000/svg">
<path d="M6.34843 4.22168L20.4906 18.3638L19.0764 19.778L17.1462 17.8499C15.741 18.6134 14.2624 18.9999 12.7124 18.9999C9.12521 18.9999 5.92114 16.9302 3.12123 12.907L2.88223 12.5574L2.50781 11.9999L2.88223 11.4423C4.0451 9.71076 5.27896 8.32124 6.58227 7.28227L4.93422 5.63589L6.34843 4.22168ZM4.92864 11.9999C7.33622 15.3692 9.92428 16.9999 12.7124 16.9999C13.7189 16.9999 14.6993 16.7874 15.6545 16.3573L14.0051 14.7078C13.6136 14.895 13.1752 14.9999 12.7124 14.9999C11.0555 14.9999 9.71239 13.6567 9.71239 11.9999C9.71239 11.5366 9.81739 11.0979 10.0049 10.7062L8.00599 8.70686C6.94849 9.51293 5.92316 10.6081 4.92864 11.9999ZM12.7124 4.99985C16.2996 4.99985 19.5036 7.06947 22.3036 11.0927L22.5426 11.4423L22.917 11.9999L22.5426 12.5574C21.9155 13.4912 21.2677 14.3255 20.5996 15.059L19.184 13.6446C19.6273 13.1518 20.0646 12.6038 20.4961 11.9999C18.0886 8.63055 15.5005 6.99985 12.7124 6.99985L12.5428 7.00285L10.7541 5.21314C11.3936 5.0712 12.0464 4.99985 12.7124 4.99985Z" fill="#282842"/>
</svg>