
<svg width="25" height="24" viewBox="0 0 25 24" fill="none" xmlns="http://www.w3.org/2000/svg">
<path d="M12.7124 5C16.4021 5 19.6864 7.18957 22.5426 11.4425L22.917 12L22.5426 12.5575C19.6864 16.8104 16.4021 19 12.7124 19C9.02272 19 5.73837 16.8104 2.88223 12.5575L2.50781 12L2.88223 11.4425C5.73837 7.18957 9.02272 5 12.7124 5ZM12.7124 7C9.92428 7 7.33622 8.6307 4.92864 12C7.33622 15.3693 9.92428 17 12.7124 17C15.5005 17 18.0886 15.3693 20.4961 12C18.0886 8.6307 15.5005 7 12.7124 7ZM12.7124 9C14.3692 9 15.7124 10.3431 15.7124 12C15.7124 13.6569 14.3692 15 12.7124 15C11.0555 15 9.71239 13.6569 9.71239 12C9.71239 10.3431 11.0555 9 12.7124 9Z" fill="#282842"/>
</svg>