
<svg width="32" height="32" viewBox="0 0 32 32" fill="none" xmlns="http://www.w3.org/2000/svg">
<path fill-rule="evenodd" clip-rule="evenodd" d="M16 4C16.3536 4 16.6928 4.14048 16.9428 4.39052C17.1929 4.64057 17.3333 4.97971 17.3333 5.33333V16C17.3333 16.3536 17.1929 16.6928 16.9428 16.9428C16.6928 17.1929 16.3536 17.3333 16 17.3333H5.33333C4.97971 17.3333 4.64057 17.1929 4.39052 16.9428C4.14048 16.6928 4 16.3536 4 16C4 15.6464 4.14048 15.3072 4.39052 15.0572C4.64057 14.8071 4.97971 14.6667 5.33333 14.6667H14.6667V5.33333C14.6667 4.97971 14.8071 4.64057 15.0572 4.39052C15.3072 4.14048 15.6464 4 16 4Z" fill="#282842"/>
<path fill-rule="evenodd" clip-rule="evenodd" d="M14.666 15.9998C14.666 15.6462 14.8065 15.3071 15.0565 15.057C15.3066 14.807 15.6457 14.6665 15.9993 14.6665H26.666C27.0196 14.6665 27.3588 14.807 27.6088 15.057C27.8589 15.3071 27.9993 15.6462 27.9993 15.9998C27.9993 16.3535 27.8589 16.6926 27.6088 16.9426C27.3588 17.1927 27.0196 17.3332 26.666 17.3332H17.3327V26.6665C17.3327 27.0201 17.1922 27.3593 16.9422 27.6093C16.6921 27.8594 16.353 27.9998 15.9993 27.9998C15.6457 27.9998 15.3066 27.8594 15.0565 27.6093C14.8065 27.3593 14.666 27.0201 14.666 26.6665V15.9998Z" fill="#282842"/>
</svg>
