
<svg width="26" height="25" viewBox="0 0 26 25" fill="none" xmlns="http://www.w3.org/2000/svg">
<g filter="url(#filter0_d)">
<path d="M16.3121 21.1083C18.6161 22.4283 21.5441 21.6483 22.8761 19.3563C24.1961 17.0523 23.4161 14.1243 21.1121 12.7923C18.8201 11.4723 15.8801 12.2523 14.5601 14.5443C14.2441 15.0903 14.0388 15.6932 13.9558 16.3186C13.8728 16.944 13.9138 17.5796 14.0765 18.1891C14.2392 18.7987 14.5204 19.3702 14.904 19.8711C15.2876 20.3719 15.7661 20.7923 16.3121 21.1083Z" fill="#FF5722"/>
<path d="M3.47778 14.0243C3.86223 13.5249 4.34138 13.1063 4.8878 12.7923C7.1798 11.4723 10.1198 12.2523 11.4398 14.5443C11.7558 15.0903 11.9612 15.6932 12.0441 16.3186C12.1271 16.944 12.0861 17.5796 11.9234 18.1891C11.7607 18.7987 11.4795 19.3702 11.0959 19.8711C10.7124 20.3719 10.2339 20.7923 9.6878 21.1083C8.58337 21.7445 7.27148 21.9161 6.04058 21.5853C4.80967 21.2545 3.76052 20.4484 3.1238 19.3443C2.80889 18.7984 2.60472 18.1957 2.52295 17.5708C2.44118 16.9459 2.48342 16.311 2.64726 15.7025C2.8111 15.0939 3.09332 14.5237 3.47778 14.0243Z" fill="#45CD95"/>
<path d="M12.9992 2.24414C15.6512 2.24414 17.7992 4.40414 17.7992 7.04414C17.7992 9.69614 15.6512 11.8441 12.9992 11.8441C10.3472 11.8441 8.19922 9.69614 8.19922 7.04414C8.19922 4.40414 10.3472 2.24414 12.9992 2.24414Z" fill="#16C1FB"/>
</g>
<defs>
<filter id="filter0_d" x="-1" y="-1" width="28" height="28" filterUnits="userSpaceOnUse" color-interpolation-filters="sRGB">
<feFlood flood-opacity="0" result="BackgroundImageFix"/>
<feColorMatrix in="SourceAlpha" type="matrix" values="0 0 0 0 0 0 0 0 0 0 0 0 0 0 0 0 0 0 127 0"/>
<feOffset dy="1"/>
<feGaussianBlur stdDeviation="1"/>
<feColorMatrix type="matrix" values="0 0 0 0 0.113056 0 0 0 0 0.409878 0 0 0 0 0.503611 0 0 0 0.25 0"/>
<feBlend mode="normal" in2="BackgroundImageFix" result="effect1_dropShadow"/>
<feBlend mode="normal" in="SourceGraphic" in2="effect1_dropShadow" result="shape"/>
</filter>
</defs>
</svg>