<svg width="24" height="24" viewBox="0 0 24 24" fill="none" xmlns="http://www.w3.org/2000/svg">
<path d="M20.4063 16.3466C19.3351 15.1859 18.0351 14.2596 16.5883 13.6261C15.1415 12.9926 13.5791 12.6655 11.9997 12.6655C10.4202 12.6655 8.85788 12.9926 7.41105 13.6261C5.96421 14.2596 4.66424 15.1859 3.59301 16.3466C3.42762 16.5294 3.3351 16.7667 3.33301 17.0132V21.0132C3.33651 21.2761 3.44342 21.5271 3.63057 21.7117C3.81773 21.8964 4.07009 21.9999 4.33301 21.9999H19.6663C19.9316 21.9999 20.1859 21.8945 20.3734 21.707C20.561 21.5195 20.6663 21.2651 20.6663 20.9999V16.9999C20.661 16.7579 20.5687 16.526 20.4063 16.3466Z" fill="#282842"/>
<path d="M11.9997 11.3333C14.577 11.3333 16.6663 9.244 16.6663 6.66667C16.6663 4.08934 14.577 2 11.9997 2C9.42235 2 7.33301 4.08934 7.33301 6.66667C7.33301 9.244 9.42235 11.3333 11.9997 11.3333Z" fill="#282842"/>
</svg>
